<?xml version="1.0" encoding="UTF-8"?>
<svg id="Layer_2" data-name="Layer 2" xmlns="http://www.w3.org/2000/svg" viewBox="0 0 684 200">
  <defs>
    <style>
      .cls-1 {
        fill: #fff;
      }

      .cls-2 {
        fill: none;
      }
    </style>
  </defs>
  <g id="Layer_1-2" data-name="Layer 1">
    <g>
      <rect class="cls-2" width="684" height="200"/>
      <g>
        <path class="cls-1" d="M228,90.75c10.8,0,20.6-1.9,26.6-3.9v-20.1h-14.8v12.4c-3.1.8-7,1.2-10.6,1.2-12.6,0-19.5-4.9-19.5-12.2s6.5-12.2,19.6-12.2,15.8,1.6,22.8,4.5l2.9-10.1c-7.7-3.6-16.6-5.1-27-5.1s-33.5,5.1-33.5,22.7,16.7,22.7,33.5,22.7v.1ZM284.7,89.65h14.7v-31.9h23.6v-11.2h-61.9v11.2h23.6v31.9h0ZM344.2,72.95h38.9v-10.3h-38.9v-6h38.9v-10.2h-53.7v43.1h14.8v-16.6h0ZM196.3,153.65h53.7v-10.2h-38.9v-7.7h38.9v-9.8h-38.9v-5.1h38.9v-10.2h-53.7v43.1-.1ZM305.2,110.45l-14.4,13.8-14.3-13.8h-22l23.7,21.6-23.6,21.5h21.7l14.4-13.7,14.3,13.7h21.9l-23.6-21.6,23.8-21.6h-21.9v.1ZM372.5,110.45h-40.6v43.1h14.8v-11.7h25.9c10,0,17.7-5.8,17.7-15.9s-7.6-15.5-17.7-15.5h-.1ZM368.9,131.75h-22.2v-11.1h21.8c3.8,0,6.5,1.8,6.5,5.3s-2.6,5.8-6.1,5.8h0ZM440.7,137.35c7-.7,12.9-5.2,12.9-13.3s-7.5-13.6-16.1-13.6h-41.1v43.1h14.8v-15.1h11.1l13.4,15.1h19.7l-16.1-16.3h1.3l.1.1ZM434.4,128.85h-23.2v-8.2h22.8c3.1,0,5.2,1.5,5.2,4s-1.9,4.2-4.9,4.2h.1ZM461.5,153.65h53.7v-10.2h-38.9v-7.7h38.9v-9.8h-38.9v-5.1h38.9v-10.2h-53.7v43.1-.1ZM550.5,125.75c-10-.8-12.8-1.5-12.8-3.5s4.2-2.8,14.5-2.8,16.4,1.2,22.3,3.5l3.1-10.3c-6.4-2.5-16.3-3.3-25.4-3.3-17.8,0-29.9,4.5-29.9,13.9s8.8,12.8,27.5,14.1c10.8.8,14.2,1.4,14.2,3.7s-3.9,3.6-14.8,3.6-17.2-1.4-23.7-3.6l-3.2,10.2c8.1,2.6,16.8,3.5,26.9,3.5,17,0,29.8-4,29.8-15.4s-9.5-12.3-28.5-13.6h0ZM612.1,125.75c-10-.8-12.8-1.5-12.8-3.5s4.2-2.8,14.5-2.8,16.4,1.2,22.3,3.5l3.1-10.3c-6.4-2.5-16.3-3.3-25.4-3.3-17.8,0-29.9,4.5-29.9,13.9s8.8,12.8,27.5,14.1c10.8.8,14.2,1.4,14.2,3.7s-3.9,3.6-14.8,3.6-17.2-1.4-23.7-3.6l-3.2,10.2c8.1,2.6,16.8,3.5,26.9,3.5,17,0,29.8-4,29.8-15.4s-9.5-12.3-28.5-13.6h0Z"/>
        <g>
          <path class="cls-1" d="M43,153.65v-43.1h136.3l-22.6,22.6c-13.1,13.1-30.9,20.5-49.5,20.5H43Z"/>
          <path class="cls-1" d="M43,72.35l16.4,16.4c7.8,7.8,20.5,7.8,28.3,0L152.6,23.85h-61l-48.5,48.5h-.1Z"/>
        </g>
      </g>
    </g>
  </g>
</svg>